<?xml version="1.0" encoding="UTF-8" standalone="no"?>
<!-- Created with Inkscape (http://www.inkscape.org/) -->

<svg
   width="1000mm"
   height="1414mm"
   viewBox="0 0 1000 1414"
   version="1.1"
   id="svg1"
   xmlns="http://www.w3.org/2000/svg"
   xmlns:svg="http://www.w3.org/2000/svg">
  <defs
     id="defs1" />
  <g
     id="layer1">
    <g
       id="g1825"
       transform="translate(-22.60029,494.82636)"
       style="fill:#280b0b">
      <path
         style="fill:#280b0b;fill-opacity:1;stroke-width:1.00362"
         d="m 487.923,157.37446 -2.6355,-1.78419 4.11074,-4.80247 c 2.2609,-2.64136 4.10802,-5.10519 4.10471,-5.47518 -0.003,-0.36999 -2.48403,-1.47632 -5.51272,-2.45851 -6.07302,-1.96946 -7.05527,-3.2293 -4.82382,-6.18714 1.37787,-1.82641 1.91697,-1.75861 7.09704,0.89263 3.08325,1.57804 5.65117,2.48897 5.70651,2.02427 0.0553,-0.46469 0.0199,-3.56671 -0.0787,-6.89336 -0.1706,-5.75342 -0.0316,-6.04848 2.84986,-6.04848 2.83789,0 3.0292,0.36336 3.0292,5.75342 0,3.16438 -0.53109,5.75342 -1.18019,5.75342 -0.6491,0 -1.18018,0.48409 -1.18018,1.07577 0,1.39017 1.68721,1.07666 8.58268,-1.59484 6.13409,-2.37652 6.12084,-2.37874 7.22156,1.21132 0.66866,2.18087 0.0165,2.63972 -5.70173,4.01149 -6.00577,1.44077 -6.36792,1.72214 -5.18496,4.02851 0.69949,1.36375 2.63486,3.94095 4.30083,5.72712 2.9632,3.17697 2.9793,3.28518 0.74093,4.97826 -3.51189,2.65638 -4.42975,2.22571 -7.46992,-3.50508 -3.0387,-5.728 -4.29065,-6.48089 -5.3969,-3.24552 -0.3884,1.13593 -1.88468,3.47325 -3.32505,5.19404 -2.43927,2.91416 -2.79959,3.00635 -5.25436,1.34452 z"
         id="path1825" />
      <path
         style="fill:#280b0b;fill-opacity:1;stroke-width:1.00362"
         d="m 400.46039,174.73473 c 0,-1.62276 0.26787,-2.28662 0.59528,-1.47523 0.32739,0.81137 0.32739,2.13909 0,2.95047 -0.32741,0.81137 -0.59528,0.14752 -0.59528,-1.47524 z"
         id="path1824" />
      <path
         style="fill:#280b0b;fill-opacity:1;stroke-width:1.00362"
         d="m 658.60118,200.6367 c -14.54481,-7.38452 -16.18636,-21.63086 -6.31631,-54.8166 6.34082,-21.31958 7.24665,-26.40208 5.34033,-29.96408 -1.9641,-3.66994 -8.32755,-3.33495 -13.1112,0.69023 l -3.78081,3.18134 1.9443,-3.75986 c 3.75212,-7.25578 17.16919,-11.14026 23.69952,-6.86142 8.46785,5.54834 8.62322,18.33954 0.52479,43.20482 -4.19902,12.89264 -5.19165,17.58501 -5.2025,24.5932 -0.0119,7.68656 0.29995,8.9144 2.77276,10.91675 6.70882,5.43247 18.24864,0.54246 25.31194,-10.72597 2.7316,-4.35786 5.02109,-11.76403 9.70168,-31.38359 2.30857,-9.67683 5.2414,-21.11844 6.51738,-25.42577 l 2.31998,-7.83152 6.66621,-0.83289 c 3.66642,-0.45809 7.34925,-1.09499 8.18407,-1.41535 1.16556,-0.44726 1.28713,0.33109 0.5238,3.35357 -0.54674,2.16481 -2.15654,8.98132 -3.57735,15.1478 -1.42081,6.16649 -5.22844,21.99166 -8.46142,35.16705 -6.18129,25.19069 -6.44027,29.45532 -1.9785,32.58047 2.9543,2.06926 8.9441,0.63674 11.79475,-2.82085 3.09285,-3.75135 3.79035,-2.76738 0.90785,1.28071 -4.00049,5.61818 -9.02877,8.13507 -16.26245,8.14011 -5.60988,0.004 -6.76149,-0.44306 -10.32665,-4.00822 -2.20696,-2.20696 -4.01264,-4.86239 -4.01264,-5.90095 0,-2.7218 -1.54073,-2.33154 -4.81009,1.21836 -4.06268,4.41131 -13.76714,8.69439 -19.38379,8.55507 -2.59641,-0.0644 -6.63995,-1.09148 -8.98565,-2.28241 z"
         id="path1823" />
      <path
         style="fill:#280b0b;fill-opacity:1;stroke-width:1.00362"
         d="m 665.28221,115.01733 c -0.52279,-2.78674 -1.39755,-4.01281 -2.863,-4.01281 -1.16062,0 -2.40194,0.29174 -2.7585,0.6483 -1.17813,1.17813 1.9221,6.17187 3.46425,5.5801 0.99501,-0.38182 1.55817,0.57203 1.64831,2.79181 0.0899,2.21422 0.32999,2.62227 0.69932,1.18859 0.30933,-1.20075 0.22367,-3.98894 -0.19038,-6.19599 z"
         id="path1822" />
      <path
         style="fill:#280b0b;fill-opacity:1;stroke-width:1.00362"
         d="m 665.68788,147.29533 c 2.23723,-8.26148 3.42678,-16.22759 2.42321,-16.22759 -0.5177,0 -1.13071,-0.9294 -1.36225,-2.06533 -0.23153,-1.13593 -1.86373,2.52664 -3.62711,8.13904 -3.31771,10.5595 -3.88714,13.35056 -2.1716,10.64421 0.75898,-1.19733 1.15275,-0.98469 1.64215,0.88677 0.40838,1.56169 0.18583,2.17876 -0.6087,1.68771 -0.73673,-0.45532 -0.90572,-0.213 -0.4104,0.58846 1.537,2.4869 2.74156,1.41742 4.1147,-3.65327 z"
         id="path1821" />
      <path
         style="fill:#280b0b;fill-opacity:1;stroke-width:1.00362"
         d="m 659.54162,150.90966 c -0.37675,-0.94147 -0.6564,-0.66182 -0.71303,0.71303 -0.0513,1.24412 0.22769,1.94117 0.61985,1.54901 0.39218,-0.39218 0.4341,-1.41009 0.0931,-2.26204 z"
         id="path1820" />
      <path
         style="fill:#280b0b;fill-opacity:1;stroke-width:1.00362"
         d="m 655.39197,151.72147 c 0.35544,0.35544 2.01291,-3.21684 3.68328,-7.9384 4.32204,-12.21706 4.71827,-13.89551 3.28027,-13.89551 -0.69285,0 -1.26786,0.92939 -1.2778,2.06533 -0.0155,1.76502 -0.18442,1.80793 -1.16211,0.29504 -0.62923,-0.97365 -1.15218,-1.38 -1.16212,-0.90298 -0.01,0.47702 -1.35965,5.52233 -2.99935,11.21179 -3.93645,13.65874 -4.37881,15.71044 -2.54244,11.79186 0.84371,-1.80036 1.82483,-2.98256 2.18027,-2.62713 z"
         id="path1819" />
      <path
         style="fill:#280b0b;fill-opacity:1;stroke-width:1.00362"
         d="m 658.37308,156.16922 c -0.29923,-1.14829 -0.56373,-0.49455 -0.58778,1.45277 -0.0241,1.94731 0.22077,2.88682 0.54406,2.08779 0.32328,-0.79902 0.34295,-2.39228 0.0438,-3.54056 z"
         id="path1818" />
      <path
         style="fill:#280b0b;fill-opacity:1;stroke-width:1.00362"
         d="m 655.97647,174.43968 c -0.3274,-0.81137 -0.59528,-0.14752 -0.59528,1.47524 0,1.62275 0.26788,2.28662 0.59528,1.47523 0.32739,-0.81137 0.32739,-2.13909 0,-2.95047 z"
         id="path1817" />
      <path
         style="fill:#280b0b;fill-opacity:1;stroke-width:1.00362"
         d="m 701.7227,171.78425 1.79441,-5.90094 -0.52379,5.90094 c -0.28808,3.24553 -0.20405,5.10432 0.18674,4.13067 0.39079,-0.97366 1.37066,-2.56692 2.17747,-3.54057 1.84959,-2.23209 8.00913,-25.63398 7.24243,-27.51612 -0.31333,-0.76918 -0.64895,-0.33634 -0.74582,0.96187 -0.16205,2.17177 -0.24346,2.18963 -1.01884,0.22355 -0.61334,-1.55522 -1.44538,-0.0294 -3.05696,5.6059 -1.21784,4.2585 -2.66009,7.74272 -3.205,7.74272 -1.32316,0 -1.28289,-0.55957 0.84912,-11.79863 2.0597,-10.85783 1.58886,-13.94233 -0.74075,-4.85268 -0.83334,3.25149 -1.88866,5.68095 -2.34518,5.39881 -0.97764,-0.60422 -5.11554,12.73799 -6.67234,21.51422 -0.59818,3.37209 -0.65449,5.8634 -0.12516,5.53625 0.52933,-0.32714 0.97056,0.36593 0.9805,1.54017 0.0156,1.83245 0.19627,1.88414 1.27565,0.3647 0.96386,-1.35682 1.10479,-0.94335 0.60339,1.77028 -0.87149,4.71665 0.8548,1.03928 3.32413,-7.08114 z"
         id="path1816" />
      <path
         style="fill:#280b0b;fill-opacity:1;stroke-width:1.00362"
         d="m 701.31539,152.80289 c 0.0566,-1.37486 0.33628,-1.65451 0.71303,-0.71303 0.34092,0.85194 0.299,1.86986 -0.0931,2.26202 -0.39216,0.39217 -0.6711,-0.30488 -0.61985,-1.54899 z"
         id="path1815" />
      <path
         style="fill:#280b0b;fill-opacity:1;stroke-width:1.00362"
         d="m 696.68711,171.78425 c -0.003,-0.6491 0.70974,-3.03898 1.58463,-5.31084 0.8749,-2.27186 1.60717,-3.33403 1.62727,-2.36038 0.0201,0.97366 -0.69298,3.36354 -1.58465,5.31085 -0.89165,1.94732 -1.62392,3.00949 -1.62725,2.36037 z"
         id="path1814" />
      <path
         style="fill:#280b0b;fill-opacity:1;stroke-width:1.00362"
         d="m 656.37504,184.76634 c 0,-0.97366 -0.51442,-1.77029 -1.14316,-1.77029 -0.62872,0 -0.83745,0.79663 -0.46382,1.77029 0.37363,0.97366 0.88804,1.77028 1.14315,1.77028 0.2551,0 0.46383,-0.79662 0.46383,-1.77028 z"
         id="path1813" />
      <path
         style="fill:#280b0b;fill-opacity:1;stroke-width:1.00362"
         d="m 696.1348,182.11091 c -0.29685,-1.13593 -0.53972,-0.20654 -0.53972,2.06534 0,2.27186 0.24287,3.20125 0.53972,2.06533 0.29685,-1.13594 0.29685,-2.99473 0,-4.13067 z"
         id="path1812" />
      <path
         style="fill:#280b0b;fill-opacity:1;stroke-width:1.00362"
         d="m 701.98934,187.71681 c -0.38947,-1.94732 -0.26395,-3.54056 0.27891,-3.54056 0.54286,0 0.68764,-1.46049 0.32172,-3.24553 l -0.66529,-3.24551 -0.8017,3.54056 c -1.28985,5.69647 -1.18321,10.03161 0.24676,10.03161 0.8458,0 1.07069,-1.2851 0.6196,-3.54057 z"
         id="path1811" />
      <path
         style="fill:#280b0b;fill-opacity:1;stroke-width:1.00362"
         d="m 661.39084,190.47576 c -0.81138,-0.32739 -2.13909,-0.32739 -2.95047,0 -0.81138,0.3274 -0.14753,0.59527 1.47524,0.59527 1.62275,0 2.28661,-0.26787 1.47523,-0.59527 z"
         id="path1810" />
      <path
         style="fill:#280b0b;fill-opacity:1;stroke-width:1.00362"
         d="m 689.39791,186.21607 c 4.38382,-7.61497 2.01953,-7.25587 -3.53827,0.5374 -6.7043,9.40091 -7.08114,10.3762 -2.62971,6.80574 1.98301,-1.59056 4.75859,-4.89498 6.16798,-7.34314 z"
         id="path1809" />
      <path
         style="fill:#280b0b;fill-opacity:1;stroke-width:1.00362"
         d="m 671.1274,197.15832 c 0.40117,-0.6491 1.6952,-1.18019 2.87561,-1.18019 1.18042,0 2.80746,-0.79673 3.61563,-1.77052 1.27025,-1.53057 0.86675,-1.51872 -2.97732,0.0874 -2.60985,1.09046 -4.74158,1.40199 -5.16052,0.75414 -1.04764,-1.62011 -12.38897,-3.136 -11.39185,-1.52264 0.43217,0.69927 1.78525,1.2714 3.00684,1.2714 1.2216,0 2.53498,0.5079 2.91862,1.12865 0.38364,0.62075 1.56428,0.79605 2.62363,0.38953 1.28751,-0.49406 1.64317,-0.28132 1.07274,0.64164 -0.50667,0.81981 -0.13415,1.38075 0.91694,1.38075 0.97366,0 2.09851,-0.53108 2.49968,-1.18019 z"
         id="path1808" />
      <path
         style="fill:#280b0b;fill-opacity:1;stroke-width:1.00362"
         d="m 584.44387,200.87121 c -20.11634,-8.43491 -25.87236,-35.90338 -13.04195,-62.23782 6.64173,-13.63216 22.17455,-24.78986 38.81966,-27.88534 9.57222,-1.78014 18.76584,0.83017 22.91773,6.50695 19.58175,26.77365 8.67645,68.36859 -21.61145,82.43026 -7.5398,3.50049 -20.23801,4.05651 -27.08399,1.18595 z"
         id="path1807" />
      <path
         style="fill:#280b0b;fill-opacity:1;stroke-width:1.00362"
         d="m 632.77126,119.29616 c 0,-3.21841 -13.02212,-6.37047 -14.75237,-3.57088 -0.43689,0.70693 1.0733,1.18717 3.76597,1.19759 2.47245,0.01 5.82308,0.75413 7.44583,1.65457 1.62276,0.90044 3.08325,1.68924 3.24553,1.75289 0.16227,0.0636 0.29504,-0.40174 0.29504,-1.03417 z"
         id="path1806" />
      <path
         style="fill:#280b0b;fill-opacity:1;stroke-width:1.00362"
         d="m 607.98729,119.20816 c 0,-0.68085 2.25712,-2.26243 5.0158,-3.51465 5.34407,-2.42577 4.70521,-3.12608 -1.02839,-1.12733 -3.40363,1.18651 -7.53642,5.87986 -5.1776,5.87986 0.6546,0 1.19019,-0.55705 1.19019,-1.23788 z"
         id="path1805" />
      <path
         style="fill:#280b0b;fill-opacity:1;stroke-width:1.00362"
         d="m 604.59727,118.38071 c 1.46799,-1.87184 1.42625,-1.91359 -0.44559,-0.44558 -1.9659,1.54177 -2.59108,2.51091 -1.61975,2.51091 0.24507,0 1.17448,-0.92939 2.06534,-2.06533 z"
         id="path1804" />
      <path
         style="fill:#280b0b;fill-opacity:1;stroke-width:1.00362"
         d="m 600.31607,118.08567 c 1.17486,-1.29821 1.87056,-2.36038 1.54601,-2.36038 -0.32455,0 -1.55134,1.06217 -2.72621,2.36038 -1.17486,1.29821 -1.87056,2.36037 -1.54601,2.36037 0.32455,0 1.55134,-1.06216 2.72621,-2.36037 z"
         id="path1803" />
      <path
         style="fill:#280b0b;fill-opacity:1;stroke-width:1.00362"
         d="m 605.03682,122.80643 c 0.40117,-0.6491 0.16697,-1.18019 -0.52044,-1.18019 -0.68741,0 -1.24984,0.53109 -1.24984,1.18019 0,0.6491 0.23419,1.18018 0.52044,1.18018 0.28625,0 0.84868,-0.53108 1.24984,-1.18018 z"
         id="path1802" />
      <path
         style="fill:#280b0b;fill-opacity:1;stroke-width:1.00362"
         d="m 632.77126,130.62216 c 0,-0.24507 -0.9294,-1.17447 -2.06533,-2.06532 -1.87185,-1.46801 -1.91359,-1.42627 -0.44559,0.44558 1.54176,1.96589 2.51092,2.59108 2.51092,1.61974 z"
         id="path1801" />
      <path
         style="fill:#280b0b;fill-opacity:1;stroke-width:1.00362"
         d="m 601.38389,126.20424 c 0.54215,-1.2375 0.16739,-2.17042 -1.0613,-2.64191 -1.16901,-0.4486 -1.60347,-0.25005 -1.12983,0.51632 0.42326,0.68486 -0.0146,1.87372 -0.97305,2.64191 -2.0147,1.61479 -3.48181,8.17829 -2.43678,10.90159 0.48033,1.25171 1.37529,0.002 2.73819,-3.82271 1.11357,-3.12519 2.40181,-6.54303 2.86277,-7.5952 z"
         id="path1800" />
      <path
         style="fill:#280b0b;fill-opacity:1;stroke-width:1.00362"
         d="m 633.95145,142.86963 c -0.75428,-1.40939 -1.63074,-2.30321 -1.94768,-1.98628 -0.31693,0.31693 0.10431,1.66598 0.93609,2.99788 1.96683,3.1494 2.79517,2.32106 1.01159,-1.0116 z"
         id="path1799" />
      <path
         style="fill:#280b0b;fill-opacity:1;stroke-width:1.00362"
         d="m 569.04106,158.2121 c 0,-1.94732 -0.20527,-3.54057 -0.45614,-3.54057 -0.25089,0 -0.68999,1.59325 -0.97579,3.54057 -0.28581,1.94731 -0.0806,3.54057 0.45614,3.54057 0.53668,0 0.97579,-1.59326 0.97579,-3.54057 z"
         id="path1798" />
      <path
         style="fill:#280b0b;fill-opacity:1;stroke-width:1.00362"
         d="m 637.73189,154.37648 c -0.85223,-3.24358 -1.01356,-2.65153 -1.0451,3.83562 -0.0317,6.51573 0.12012,7.09348 1.00781,3.83561 0.58848,-2.15979 0.60477,-5.51145 0.0373,-7.67123 z"
         id="path1797" />
      <path
         style="fill:#280b0b;fill-opacity:1;stroke-width:1.00362"
         d="m 576.20244,163.52294 c 0.13204,1.33876 3.09089,-10.37348 4.57277,-18.10077 1.14804,-5.98646 -0.29636,-5.14841 -2.76908,1.60664 -2.35846,6.44291 -2.33951,3.16613 0.0219,-3.78928 1.04822,-3.08746 3.96918,-8.71996 6.49104,-12.51668 2.52185,-3.79674 4.58519,-7.19617 4.58519,-7.5543 0,-1.52906 -3.76566,2.68316 -7.7068,8.62073 -2.33756,3.52169 -4.75746,6.08954 -5.37753,5.70631 -1.5003,-0.92723 -4.41008,6.23373 -5.13398,12.63475 -0.45505,4.02374 -0.37593,4.36708 0.36659,1.59072 0.81008,-3.02898 1.08327,-2.28952 1.8906,5.11753 0.59764,5.48316 1.31025,8.07983 1.9433,7.08114 0.54978,-0.86734 1.05198,-1.04589 1.11599,-0.39679 z"
         id="path1796" />
      <path
         style="fill:#280b0b;fill-opacity:1;stroke-width:1.00362"
         d="m 635.91325,167.35856 c -0.3274,-0.81138 -0.59527,-0.14753 -0.59527,1.47523 0,1.62277 0.26787,2.28662 0.59527,1.47524 0.3274,-0.81138 0.3274,-2.13909 0,-2.95047 z"
         id="path1795" />
      <path
         style="fill:#280b0b;fill-opacity:1;stroke-width:1.00362"
         d="m 571.02745,168.61251 c -0.37674,-0.94148 -0.6564,-0.66182 -0.71303,0.71303 -0.0513,1.24411 0.22769,1.94117 0.61986,1.54899 0.39217,-0.39216 0.4341,-1.41007 0.0931,-2.26202 z"
         id="path1794" />
      <path
         style="fill:#280b0b;fill-opacity:1;stroke-width:1.00362"
         d="m 627.84117,183.29111 c 1.54896,-1.78503 3.22485,-4.30769 3.72422,-5.60589 1.88524,-4.90112 2.36954,-29.40742 0.61577,-31.15933 -0.78672,-0.78589 -1.04542,2.04924 -0.77596,8.50386 0.33716,8.07592 -0.10622,11.14382 -2.67168,18.48676 -1.69176,4.84219 -3.5997,9.32774 -4.23985,9.9679 -0.64015,0.64015 -1.16392,1.58878 -1.16392,2.10806 0,1.80004 1.7089,0.92829 4.51142,-2.30136 z"
         id="path1793" />
      <path
         style="fill:#280b0b;fill-opacity:1;stroke-width:1.00362"
         d="m 620.0219,184.4713 c 4.96649,-6.96965 9.21905,-16.7785 9.17686,-21.16714 -0.0256,-2.66518 -0.703,-1.80544 -3.42694,4.34945 -5.69223,12.86188 -7.61062,16.52265 -8.65855,16.52265 -0.55218,0 -0.66135,0.55434 -0.24261,1.23188 0.41874,0.67753 0.11951,2.00525 -0.66496,2.95047 -0.78445,0.94522 -1.14554,1.71859 -0.8024,1.71859 0.34315,0 2.42151,-2.52266 4.6186,-5.6059 z"
         id="path1792" />
      <path
         style="fill:#280b0b;fill-opacity:1;stroke-width:1.00362"
         d="m 606.92696,188.20947 c 10.2009,-5.15727 19.94336,-26.07868 19.94336,-42.82731 0,-17.24061 -12.67691,-28.61827 -21.53762,-19.33022 -5.64489,5.91715 -7.20796,14.00642 -3.67974,19.04367 1.92438,2.74743 1.92158,2.75008 -2.06533,1.9511 -2.26785,-0.45449 -5.36049,-2.36188 -7.15975,-4.41579 l -3.16743,-3.61571 -2.42107,3.98112 c -1.33159,2.18962 -3.29336,7.90194 -4.3595,12.69404 -3.62369,16.28778 -0.10552,29.96602 8.63899,33.58734 4.79395,1.9853 10.53577,1.59729 15.80809,-1.06824 z"
         id="path1791" />
      <path
         style="fill:#280b0b;fill-opacity:1;stroke-width:1.00362"
         d="m 584.41769,188.34329 c -1.50571,-1.60275 -3.15485,-2.65626 -3.66475,-2.34113 -0.5099,0.31514 -1.26066,0.0332 -1.66837,-0.62647 -0.40772,-0.65969 -1.3223,-1.19943 -2.03242,-1.19943 -0.71012,0 -0.0664,1.06216 1.43042,2.36037 1.49684,1.29821 3.20271,2.36038 3.7908,2.36038 0.58809,0 0.74103,0.53109 0.33986,1.18019 -0.4031,0.65222 0.44971,1.18019 1.90636,1.18019 h 2.63575 z"
         id="path1790" />
      <path
         style="fill:#280b0b;fill-opacity:1;stroke-width:1.00362"
         d="m 605.05141,192.64886 c -0.27659,-0.27658 -1.45519,-0.10569 -2.61912,0.37976 -2.57538,1.07416 -14.78558,1.28641 -16.4056,0.28519 -0.64118,-0.39627 -1.89398,-0.27044 -2.784,0.27962 -1.99638,1.23383 8.00297,2.92735 12.36311,2.09385 1.61699,-0.3091 2.93998,-0.0746 2.93998,0.52124 0,0.59579 1.57692,0.15175 3.50426,-0.98676 1.92734,-1.1385 3.27795,-2.29631 3.00137,-2.5729 z"
         id="path1789" />
      <path
         style="fill:#280b0b;fill-opacity:1;stroke-width:1.00362"
         d="m 523.51332,201.56929 c 5.1223,-17.63077 18.76192,-76.41735 17.92456,-77.25471 -0.26007,-0.26007 -3.41804,-0.77683 -7.01771,-1.14835 -7.91047,-0.81643 -16.86579,1.23152 -20.72779,4.74013 l -2.83028,2.57129 0.74883,-2.95047 c 0.41185,-1.62276 0.75609,-3.59585 0.76495,-4.38464 0.009,-0.7888 1.66574,-3.313 3.68197,-5.60935 5.32179,-6.06118 13.68525,-8.24528 27.86503,-7.27688 31.10822,2.12452 32.80338,2.15011 37.51017,0.56638 3.3809,-1.13761 5.33436,-2.76081 6.88272,-5.7191 l 2.16197,-4.13066 -0.50872,6.14624 c -0.98484,11.89897 -9.13504,18.22449 -24.48441,19.00277 l -8.8673,0.44963 -2.78825,14.93512 c -3.58235,19.18868 -12.63807,55.42818 -14.37309,57.51876 -0.73535,0.88605 -3.27521,1.93155 -5.64412,2.32335 -2.36892,0.3918 -5.82781,1.19584 -7.68642,1.78676 -3.1341,0.99644 -3.32364,0.88278 -2.61211,-1.56627 z"
         id="path1788" />
      <path
         style="fill:#280b0b;fill-opacity:1;stroke-width:1.00362"
         d="m 567.27078,115.07539 c -4.54373,-0.86098 -11.44784,-1.53497 -15.34246,-1.49775 l -7.08113,0.0676 5.90094,1.51679 c 3.24552,0.83423 10.14962,1.50822 15.34245,1.49776 l 9.44151,-0.0191 z"
         id="path1787" />
      <path
         style="fill:#280b0b;fill-opacity:1;stroke-width:1.00362"
         d="m 568.07781,119.27814 c -5.19385,-1.22928 -24.59411,-2.80133 -23.7441,-1.92404 1.12868,1.16489 13.11362,2.81508 20.57669,2.83317 5.94309,0.0145 6.45214,-0.13171 3.16741,-0.90913 z"
         id="path1786" />
      <path
         style="fill:#280b0b;fill-opacity:1;stroke-width:1.00362"
         d="m 566.09058,122.90237 c -1.2982,-0.51405 -7.40568,-1.23965 -13.57217,-1.61245 -10.67345,-0.64527 -10.95678,-0.60237 -5.90094,0.89357 5.69801,1.68595 23.58284,2.34619 19.47311,0.71888 z"
         id="path1785" />
      <path
         style="fill:#280b0b;fill-opacity:1;stroke-width:1.00362"
         d="m 544.63926,172.66941 c 1.04708,-5.03056 2.19577,-11.2708 2.55262,-13.86723 0.57157,-4.15857 0.49449,-4.36938 -0.64729,-1.77027 -1.13565,2.58512 -5.73401,21.5244 -5.80252,23.89882 -0.014,0.48683 0.42872,0.88514 0.98393,0.88514 0.5552,0 1.86617,-4.11591 2.91326,-9.14646 z"
         id="path1784" />
      <path
         style="fill:#280b0b;fill-opacity:1;stroke-width:1.00362"
         d="m 536.56411,177.60926 c 1.44888,-5.65965 1.67719,-6.04176 1.18865,-1.98938 -0.33259,2.7587 -0.39729,5.01581 -0.1438,5.01581 0.96143,0 6.86504,-23.52865 6.27413,-25.0053 -0.34091,-0.85193 -0.67866,-0.22124 -0.75055,1.40152 -0.0719,1.62275 -0.97389,4.01264 -2.00445,5.31084 -1.76528,2.22377 -1.83249,2.053 -1.16116,-2.95047 0.39191,-2.92096 0.97998,-7.43518 1.30682,-10.03161 l 0.59425,-4.72075 -1.84905,5.31085 c -3.37117,9.68273 -5.40204,19.37452 -5.76343,27.50454 -0.19636,4.41728 -0.16075,7.83516 0.0791,7.59528 0.23988,-0.23987 1.24314,-3.58847 2.22947,-7.44133 z"
         id="path1783" />
      <path
         style="fill:#280b0b;fill-opacity:1;stroke-width:1.00362"
         d="m 538.54249,167.65361 c 0,-1.62277 0.26787,-2.28662 0.59528,-1.47524 0.3274,0.81138 0.3274,2.13909 0,2.95047 -0.32741,0.81138 -0.59528,0.14753 -0.59528,-1.47523 z"
         id="path1782" />
      <path
         style="fill:#280b0b;fill-opacity:1;stroke-width:1.00362"
         d="m 293.92245,203.71148 c -0.85368,-0.85369 -27.56629,-2.41104 -41.4681,-2.41761 -5.68024,-0.003 -10.32723,-0.15881 -10.32666,-0.34694 5.8e-4,-0.18814 1.01608,-2.33171 2.25668,-4.76349 1.24061,-2.43178 4.47497,-13.69618 7.18747,-25.032 4.80238,-20.06958 11.92191,-47.4934 14.28838,-55.03761 1.01002,-3.21992 1.86531,-3.84634 6.12895,-4.48889 2.72533,-0.41071 6.34028,-1.00951 8.03323,-1.33067 l 3.0781,-0.58393 -1.49678,6.253 c -0.82323,3.43914 -4.22971,17.93687 -7.56994,32.21715 -3.34022,14.28029 -7.11697,28.82945 -8.39276,32.33147 -1.27581,3.50202 -2.03917,6.64779 -1.69637,6.99058 0.34279,0.3428 8.02834,0.66402 17.07899,0.71382 15.13029,0.0833 16.60006,-0.0996 18.2476,-2.26983 1.71259,-2.25594 1.79527,-2.17762 1.86866,1.77029 l 0.0768,4.13066 2.41838,-2.90629 c 3.56054,-4.27888 8.50909,-13.03537 7.77917,-13.76528 -0.91649,-0.91649 -5.69832,1.85906 -8.1799,4.74791 -2.12261,2.47097 -2.12873,2.46619 -1.35847,-1.05842 1.78738,-8.17889 7.97525,-14.51989 16.1784,-16.57875 3.18986,-0.80061 7.21986,-7.32743 20.25984,-32.81201 6.94331,-13.56958 7.0352,-13.87396 4.72076,-15.63771 -2.25645,-1.71957 -5.3466,-1.66327 -10.6217,0.19352 -1.29821,0.45695 -0.53972,-0.56171 1.68551,-2.2637 9.11355,-6.97058 21.97172,-5.06702 26.63073,3.94248 2.51773,4.86876 4.94253,20.6278 7.56636,49.17452 2.55584,27.80713 3.67959,31.59165 9.86457,33.22182 l 3.82076,1.00705 -3.777,1.97332 c -4.87986,2.54953 -9.44018,2.49994 -14.39342,-0.15651 -4.36286,-2.33983 -9.55292,-10.76494 -9.58209,-15.55473 -0.0306,-5.03503 -1.82722,-6.30073 -11.99392,-8.44985 -5.40182,-1.14187 -10.19408,-2.10179 -10.64946,-2.13313 -0.45538,-0.0313 -3.20769,3.6217 -6.11624,8.11787 -6.40546,9.90182 -11.56495,15.06754 -17.83976,17.86131 -5.37564,2.39342 -12.68566,3.96167 -13.70677,2.94058 z"
         id="path1781" />
      <path
         style="fill:#280b0b;fill-opacity:1;stroke-width:1.00362"
         d="m 354.24082,120.151 c -0.003,-0.81138 -1.35923,-3.06849 -3.01333,-5.0158 l -3.00747,-3.54057 2.71828,5.00672 c 2.93353,5.40316 3.3115,5.80941 3.30252,3.54965 z"
         id="path1780" />
      <path
         style="fill:#280b0b;fill-opacity:1;stroke-width:1.00362"
         d="m 351.51231,121.40495 c -0.37674,-0.94147 -0.65639,-0.66183 -0.71303,0.71303 -0.0513,1.24412 0.22769,1.94116 0.61986,1.549 0.39217,-0.39216 0.43409,-1.41008 0.0931,-2.26203 z"
         id="path1779" />
      <path
         style="fill:#280b0b;fill-opacity:1;stroke-width:1.00362"
         d="m 343.94353,129.00242 c 0.32662,-1.13593 0.97615,-3.12751 1.4434,-4.42571 0.46726,-1.29821 -0.26912,-0.62152 -1.63639,1.50376 -2.76275,4.29441 -2.96328,4.98728 -1.44339,4.98728 0.57339,0 1.30976,-0.9294 1.63638,-2.06533 z"
         id="path1778" />
      <path
         style="fill:#280b0b;fill-opacity:1;stroke-width:1.00362"
         d="m 353.05677,127.85931 c -1.27833,-1.99273 -1.31326,-1.98963 -0.66949,0.0594 0.37357,1.18902 0.74081,3.04782 0.81611,4.13066 0.12334,1.77368 0.18969,1.76779 0.66949,-0.0594 0.29292,-1.11554 -0.0743,-2.97433 -0.81611,-4.13066 z"
         id="path1777" />
      <path
         style="fill:#280b0b;fill-opacity:1;stroke-width:1.00362"
         d="m 343.58884,135.19841 c 0,-0.6491 -0.51483,-0.38356 -1.14405,0.5901 -0.62923,0.97365 -1.14404,2.30137 -1.14404,2.95047 0,0.6491 0.51481,0.38356 1.14404,-0.5901 0.62922,-0.97365 1.14405,-2.30136 1.14405,-2.95047 z"
         id="path1776" />
      <path
         style="fill:#280b0b;fill-opacity:1;stroke-width:1.00362"
         d="m 332.96259,151.13096 c 1.78466,-1.66954 9.36502,-19.04066 8.12914,-18.62871 -1.36156,0.45386 -13.77787,22.73515 -13.92232,24.98386 -0.0369,0.57437 1.10955,-0.4878 2.54766,-2.36038 1.43811,-1.87257 2.89859,-3.67022 3.24552,-3.99477 z"
         id="path1775" />
      <path
         style="fill:#280b0b;fill-opacity:1;stroke-width:1.00362"
         d="m 341.59741,148.97173 c 4.52327,-10.3269 5.02858,-15.19464 0.6947,-6.69219 -3.25756,6.39085 -3.89934,6.39085 -1.64164,0 0.6755,-1.91213 0.36972,-1.80007 -1.61015,0.59009 -1.34419,1.62277 -2.4558,3.64925 -2.47024,4.5033 -0.0145,0.85405 -0.65347,2.71286 -1.42009,4.13066 -0.76661,1.41781 -1.56955,4.13683 -1.78431,6.04226 l -0.39046,3.46443 2.84547,-2.67318 c 1.56501,-1.47026 4.16453,-5.68467 5.77672,-9.36537 z"
         id="path1774" />
      <path
         style="fill:#280b0b;fill-opacity:1;stroke-width:1.00362"
         d="m 351.74836,158.50714 c -0.0759,-3.08324 -0.48722,-9.05795 -0.91409,-13.27712 l -0.77615,-7.67123 -5.78662,11.49386 c -3.18264,6.32163 -5.45368,11.82682 -5.04674,12.23375 0.83249,0.8325 7.44731,2.52165 10.5962,2.70583 1.71194,0.10016 2.04174,-0.83843 1.9274,-5.48509 z"
         id="path1773" />
      <path
         style="fill:#280b0b;fill-opacity:1;stroke-width:1.00362"
         d="m 337.66153,165.32883 c -2.44113,-1.42889 -14.94955,-2.99252 -13.75512,-1.71946 0.8054,0.85841 8.17133,2.28199 13.81763,2.67047 1.51806,0.10445 1.50916,-0.031 -0.0625,-0.95101 z"
         id="path1772" />
      <path
         style="fill:#280b0b;fill-opacity:1;stroke-width:1.00362"
         d="m 336.21034,171.64746 c -0.39979,-0.3998 -2.47989,-1.18627 -4.62241,-1.74771 -3.4603,-0.90676 -3.30218,-0.96228 1.41535,-0.49696 4.02575,0.39708 4.67097,0.25902 2.66646,-0.57056 -3.69946,-1.53104 -15.81927,-2.751 -12.69807,-1.27816 2.13257,1.00633 2.04713,1.12183 -0.88514,1.19677 -6.06775,0.15508 -3.27729,2.32354 3.54057,2.75138 3.73234,0.2342 7.80399,0.52626 9.04811,0.64899 1.24412,0.12273 1.93492,-0.10396 1.53513,-0.50375 z"
         id="path1771" />
      <path
         style="fill:#280b0b;fill-opacity:1;stroke-width:1.00362"
         d="m 359.60031,175.19881 c -0.60824,-4.0561 -0.45965,-5.21708 0.58507,-4.5714 1.04495,0.64582 1.18365,-0.44544 0.54649,-4.29968 -0.46965,-2.84084 -0.53746,-4.86514 -0.15071,-4.49845 0.38676,0.36669 1.18197,3.55321 1.76715,7.08114 1.03141,6.21827 1.0707,6.27006 1.28486,1.69366 0.18313,-3.91322 0.41061,-4.31699 1.32981,-2.36037 1.24889,2.65837 0.61784,-9.14111 -1.15601,-21.6156 -1.58767,-11.16508 -2.47916,-10.22815 -2.47916,2.60551 0,13.0843 -2.27207,15.01348 -2.50001,2.12274 -0.1139,-6.44158 -0.32283,-7.24424 -1.13382,-4.35606 -0.81063,2.88686 -0.91726,2.47614 -0.57749,-2.22449 0.23129,-3.20003 -0.004,-5.08402 -0.52931,-4.23438 -0.6686,1.08182 -1.10333,0.6959 -1.48253,-1.31609 -0.29509,-1.56571 -0.57153,5.11953 -0.6143,14.85609 -0.0428,9.73656 0.37866,18.76501 0.93651,20.06322 0.88381,2.05672 1.04291,1.90489 1.23676,-1.18019 0.18426,-2.93245 0.42314,-2.57773 1.39081,2.06533 1.49632,7.17955 2.61553,7.30192 1.54588,0.16902 z"
         id="path1770" />
      <path
         style="fill:#280b0b;fill-opacity:1;stroke-width:1.00362"
         d="m 364.4944,181.59459 c -0.37675,-0.94148 -0.65641,-0.66182 -0.71304,0.71303 -0.0513,1.24411 0.22769,1.94117 0.61986,1.54899 0.39216,-0.39216 0.43409,-1.41007 0.0931,-2.26202 z"
         id="path1769" />
      <path
         style="fill:#280b0b;fill-opacity:1;stroke-width:1.00362"
         d="m 256.01983,178.2753 c 1.3295,-2.92096 2.731,-6.10747 3.11442,-7.08112 0.38343,-0.97367 0.51019,1.15068 0.28169,4.72075 l -0.41545,6.49104 2.15487,-4.72075 c 2.25694,-4.94436 3.05214,-4.12113 1.06579,1.10336 -0.63303,1.66501 -0.76581,3.01931 -0.29504,3.00954 1.49047,-0.0309 7.54376,-21.38266 8.00312,-28.22938 0.33894,-5.05196 0.21007,-5.75102 -0.55819,-3.02787 -0.95843,3.39717 -1.01008,3.42107 -1.27542,0.59009 -0.23082,-2.46267 -0.3736,-2.56837 -0.86362,-0.63929 -0.32288,1.27116 -1.38184,3.52417 -2.35323,5.0067 -0.97139,1.48253 -1.44832,3.52381 -1.05983,4.53619 0.3885,1.01238 0.2267,1.54426 -0.35952,1.18195 -0.58624,-0.36231 -1.33485,0.008 -1.6636,0.82384 -1.31565,3.26335 -0.68008,-3.71476 0.88946,-9.76547 0.92044,-3.54837 1.45152,-6.6736 1.18018,-6.94492 -0.27133,-0.27134 -0.49333,0.1576 -0.49333,0.95319 0,0.7956 -0.48155,1.14893 -1.07013,0.78518 -0.58856,-0.36377 -0.80784,0.34158 -0.48727,1.56743 0.32056,1.22585 0.0115,2.58187 -0.68664,3.0134 -0.80007,0.49446 -1.02333,-0.002 -0.6038,-1.34204 0.63207,-2.01924 0.59795,-2.02113 -0.67558,-0.0375 -0.73771,1.14903 -0.98645,3.20711 -0.55277,4.57351 0.43368,1.36639 0.31533,2.19192 -0.263,1.83449 -0.92771,-0.57336 -1.96526,3.25976 -6.3868,23.59552 -1.32536,6.09568 -1.29553,10.57681 0.0418,6.26348 0.50308,-1.62276 2.00248,-5.34035 3.33199,-8.26133 z"
         id="path1768" />
      <path
         style="fill:#280b0b;fill-opacity:1;stroke-width:1.00362"
         d="m 264.6455,166.96516 c 0.0566,-1.37485 0.33628,-1.6545 0.71303,-0.71303 0.34092,0.85196 0.29898,1.86987 -0.0931,2.26203 -0.39216,0.39217 -0.6711,-0.30488 -0.61985,-1.549 z"
         id="path1767" />
      <path
         style="fill:#280b0b;fill-opacity:1;stroke-width:1.00362"
         d="m 319.89904,186.04532 c 2.66408,-3.8403 4.54172,-7.28442 4.17254,-7.65361 -0.83399,-0.83397 -4.30765,3.56217 -8.18519,10.35889 -5.36315,9.40079 -3.52654,8.16256 4.01265,-2.70528 z"
         id="path1766" />
      <path
         style="fill:#280b0b;fill-opacity:1;stroke-width:1.00362"
         d="m 287.24708,195.21056 c 6.37996,-2.46575 7.81139,-3.71512 4.27311,-3.72959 -1.5257,-0.006 -8.82972,-0.0665 -16.23117,-0.13411 -7.40144,-0.0675 -13.7302,0.15025 -14.06391,0.48396 -0.33371,0.33372 2.80104,0.62557 6.96612,0.64857 7.09059,0.0391 7.3851,0.14575 4.62432,1.67365 l -2.94857,1.63182 4.12876,0.49786 c 2.27082,0.27383 5.0474,0.58285 6.1702,0.68674 1.1228,0.10388 4.30931,-0.68762 7.08114,-1.7589 z"
         id="path1765" />
      <path
         style="fill:#280b0b;fill-opacity:1;stroke-width:1.00362"
         d="m 279.30468,193.61777 -2.36038,-1.0143 2.36038,0.0347 c 1.29821,0.0191 3.6881,0.45989 5.31085,0.9796 l 2.95048,0.9449 -2.95048,0.0347 c -1.62275,0.0191 -4.01264,-0.42174 -5.31085,-0.97959 z"
         id="path1764" />
      <path
         style="fill:#280b0b;fill-opacity:1;stroke-width:1.00362"
         d="m 309.93306,189.20445 c 3.30748,-4.39517 4.9496,-5.7605 5.67775,-4.72075 0.63793,0.91093 0.74263,0.46099 0.2775,-1.19259 -0.4393,-1.56178 -0.22811,-2.65542 0.51279,-2.65542 0.69284,0 1.25972,-0.79664 1.25972,-1.77029 0,-3.29539 -1.77215,-1.79517 -7.01882,5.94181 -2.87638,4.24165 -5.92591,8.28982 -6.77671,8.99593 -0.85081,0.7061 -1.54693,2.05336 -1.54693,2.9939 0,2.14924 1.1364,1.01613 7.6147,-7.59259 z"
         id="path1763" />
      <path
         style="fill:#280b0b;fill-opacity:1;stroke-width:1.00362"
         d="m 277.43604,199.07638 c -0.27045,-0.24329 -3.67824,-0.74895 -7.57287,-1.12369 -4.58732,-0.44139 -6.04205,-0.32705 -4.13066,0.32469 2.91037,0.99237 12.65834,1.65786 11.70353,0.799 z"
         id="path1762" />
      <path
         style="fill:#280b0b;fill-opacity:1;stroke-width:1.00362"
         d="m 848.19669,203.96058 c -8.62179,-3.12241 -11.27541,-12.76053 -7.88414,-28.63575 1.24795,-5.84194 1.92994,-10.95484 1.51552,-11.362 -0.4144,-0.40717 -6.10586,-1.01588 -12.64766,-1.35268 l -11.89419,-0.61237 -2.64426,10.79419 c -1.45436,5.9368 -3.8147,14.48098 -5.24522,18.98705 l -2.60095,8.19284 -7.93961,2.00372 c -4.36679,1.10205 -7.93961,1.84302 -7.93961,1.6466 0,-0.19642 2.12434,-8.88215 4.72075,-19.30162 4.83868,-19.41767 5.37524,-22.57365 3.83563,-22.56013 -1.46733,0.0129 -7.28891,4.15814 -9.23808,6.57797 -1.70059,2.11122 -1.7742,1.94386 -1.07961,-2.45508 0.98066,-6.21079 5.9346,-13.28461 11.02015,-15.7359 3.85264,-1.85701 4.2329,-2.59351 6.80422,-13.17873 3.08855,-12.71442 3.44743,-17.78347 1.40374,-19.82717 -2.16892,-2.16892 -8.54505,-1.68532 -11.82807,0.89709 -2.58411,2.03267 -2.87461,3.00323 -2.39449,7.99996 0.69466,7.22951 -1.7434,13.22792 -6.95462,17.11063 -5.17277,3.85405 -8.80884,4.53248 -14.58255,2.72085 -3.98949,-1.25179 -4.35512,-1.61547 -2.36037,-2.34784 5.93549,-2.1792 7.8078,-3.73004 10.01981,-8.29943 3.0723,-6.34654 2.9924,-9.06186 -0.35932,-12.21063 -7.43872,-6.98832 -26.67305,1.17924 -34.58969,14.68798 -7.90473,13.4884 -10.15772,32.60119 -4.95138,42.00389 4.04808,7.31085 9.09231,9.78948 19.84897,9.75334 7.40535,-0.0249 9.91187,-0.58145 15.34246,-3.40686 3.57007,-1.85743 8.21706,-5.20114 10.32665,-7.43048 4.17595,-4.413 4.76981,-3.68493 2.13599,2.61868 -2.65041,6.34331 -11.82075,15.34705 -18.7014,18.36164 -7.83759,3.43386 -20.2944,3.78812 -28.04196,0.79748 -14.42877,-5.56963 -22.49527,-23.20071 -19.84059,-43.36591 1.76594,-13.41422 6.78548,-23.26372 16.55006,-32.47515 9.22367,-8.70113 16.55367,-12.81984 25.88541,-14.5449 11.26861,-2.08311 23.98851,1.21373 27.09776,7.02341 1.314,2.45525 1.36944,2.44382 5.05526,-1.04242 5.13248,-4.85456 8.07065,-6.1685 13.79366,-6.1685 6.15283,0 11.21234,2.91529 13.19175,7.60109 1.87554,4.43994 1.60479,14.51287 -0.61341,22.82083 -0.91458,3.42543 -1.27233,6.46941 -0.79499,6.76443 1.8483,1.14232 23.94031,3.05147 24.72755,2.13692 0.45787,-0.53192 2.01809,-5.48135 3.46713,-10.99874 1.44906,-5.51738 3.66643,-13.56072 4.92751,-17.87408 l 2.29287,-7.84249 7.28541,-1.2833 c 4.00697,-0.70581 7.45146,-1.11724 7.65442,-0.91427 0.49669,0.49669 -7.02013,33.7343 -12.58516,55.64858 -2.47255,9.73656 -4.82815,19.62888 -5.23465,21.98292 -1.69172,9.79639 4.19402,14.15112 12.77414,9.45132 l 4.70999,-2.57991 -2.88948,3.09275 c -5.44762,5.83088 -14.18296,8.43651 -20.55135,6.13018 z"
         id="path1761" />
      <path
         style="fill:#280b0b;fill-opacity:1;stroke-width:1.00362"
         d="m 771.71391,116.19245 c -0.39216,-0.39217 -1.41007,-0.43409 -2.26203,-0.0931 -0.94147,0.37675 -0.66181,0.6564 0.71304,0.71303 1.24411,0.0513 1.94117,-0.22769 1.54899,-0.61985 z"
         id="path1760" />
      <path
         style="fill:#280b0b;fill-opacity:1;stroke-width:1.00362"
         d="m 788.15762,121.33119 c -0.32739,-0.81138 -0.59527,-0.14753 -0.59527,1.47524 0,1.62276 0.26788,2.28661 0.59527,1.47524 0.3274,-0.81139 0.3274,-2.1391 0,-2.95048 z"
         id="path1759" />
      <path
         style="fill:#280b0b;fill-opacity:1;stroke-width:1.00362"
         d="m 756.86846,122.51138 c 1.20065,-1.13593 2.9483,-2.06534 3.88365,-2.06534 2.56199,0 3.35273,-2.12074 0.96923,-2.59944 -1.94718,-0.39108 -12.09586,7.96152 -12.10667,9.96407 -0.005,0.87819 3.19541,-1.45968 7.25379,-5.29929 z"
         id="path1758" />
      <path
         style="fill:#280b0b;fill-opacity:1;stroke-width:1.00362"
         d="m 817.45981,123.821 c 0.46359,-3.86197 0.22698,-5.34238 -0.85406,-5.34356 -1.06002,-0.001 -1.37473,1.68196 -1.08112,5.78182 0.49509,6.91329 1.06828,6.78348 1.93518,-0.43826 z"
         id="path1757" />
      <path
         style="fill:#280b0b;fill-opacity:1;stroke-width:1.00362"
         d="m 791.63235,134.36526 c 1.34925,-2.60915 1.54183,-3.92186 0.62041,-4.22901 -0.7349,-0.24496 -1.35307,-1.59607 -1.37372,-3.00247 -0.0347,-2.36562 -0.15391,-2.40382 -1.59193,-0.51009 -1.73531,2.28524 -3.0913,1.59045 -3.0913,-1.58393 0,-1.15172 -0.3983,-2.33359 -0.88513,-2.62638 -0.48684,-0.29279 -0.96153,2.99515 -1.05488,7.30653 -0.0933,4.31138 0.0837,7.17503 0.39339,6.36364 0.30973,-0.81138 1.37232,-1.47523 2.36134,-1.47523 1.11353,0 1.53954,0.67404 1.11888,1.77027 -1.30025,3.38841 1.55959,1.74471 3.50294,-2.01333 z"
         id="path1756" />
      <path
         style="fill:#280b0b;fill-opacity:1;stroke-width:1.00362"
         d="m 855.45298,136.7474 c -0.37675,-0.94147 -0.65641,-0.66181 -0.71303,0.71304 -0.0513,1.24411 0.22769,1.94116 0.61986,1.54899 0.39216,-0.39217 0.43409,-1.41007 0.0931,-2.26203 z"
         id="path1755" />
      <path
         style="fill:#280b0b;fill-opacity:1;stroke-width:1.00362"
         d="m 818.06092,143.45973 c 0,-0.97365 -0.20873,-1.77028 -0.46383,-1.77028 -0.25511,0 -0.76952,0.79663 -1.14315,1.77028 -0.37363,0.97365 -0.1649,1.77029 0.46383,1.77029 0.62873,0 1.14315,-0.79664 1.14315,-1.77029 z"
         id="path1754" />
      <path
         style="fill:#280b0b;fill-opacity:1;stroke-width:1.00362"
         d="m 811.23485,140.48663 c 0.63856,-4.35077 -0.93223,-3.10696 -2.11396,1.6739 -0.55382,2.24058 -0.42593,3.1621 0.37051,2.66986 0.66893,-0.41342 1.45348,-2.36812 1.74345,-4.34376 z"
         id="path1753" />
      <path
         style="fill:#280b0b;fill-opacity:1;stroke-width:1.00362"
         d="m 823.37177,151.13096 c -1.29821,-0.55785 -4.75026,-0.96818 -7.67123,-0.91183 l -5.31085,0.10247 5.90094,0.80936 c 8.44296,1.15802 9.77601,1.15802 7.08114,0 z"
         id="path1752" />
      <path
         style="fill:#280b0b;fill-opacity:1;stroke-width:1.00362"
         d="m 822.16039,155.95581 c 1.73895,-0.67953 0.72006,-1.12365 -4.02071,-1.75253 -3.80549,-0.50482 -6.63455,-0.38179 -7.06026,0.30704 -0.39069,0.63216 -2.56451,1.37313 -4.83071,1.6466 -2.26619,0.27348 -0.1372,0.5449 4.73108,0.60316 4.86828,0.0582 9.89955,-0.30367 11.1806,-0.80427 z"
         id="path1751" />
      <path
         style="fill:#280b0b;fill-opacity:1;stroke-width:1.00362"
         d="m 808.33812,158.5814 c -1.12836,-0.2954 -3.2527,-0.30612 -4.72076,-0.0238 -1.46805,0.28229 -0.54484,0.52398 2.05157,0.53708 2.59642,0.0131 3.79755,-0.21787 2.66919,-0.51326 z"
         id="path1750" />
      <path
         style="fill:#280b0b;fill-opacity:1;stroke-width:1.00362"
         d="m 725.59089,155.78519 c 0.046,-5.01958 -0.35156,-7.90002 -1.00068,-7.25091 -1.86888,1.86889 -1.29708,15.57876 0.64975,15.57876 0.15108,0 0.30899,-3.74753 0.35093,-8.32785 z"
         id="path1749" />
      <path
         style="fill:#280b0b;fill-opacity:1;stroke-width:1.00362"
         d="m 734.18455,158.65763 c 0.0457,-2.02682 1.62773,-8.88106 3.51578,-15.23165 1.88806,-6.35058 3.19127,-12.17601 2.89604,-12.9454 -0.56637,-1.4759 9.50168,-12.39491 11.42892,-12.39491 0.61888,0 1.12523,-0.54333 1.12523,-1.20739 0,-3.0455 -13.7003,8.28847 -15.45457,12.78525 -0.585,1.49954 -1.54373,2.42973 -2.13051,2.06708 -1.35701,-0.83867 -6.07239,6.9885 -7.23878,12.01584 -0.48838,2.10502 -0.54642,3.6167 -0.12898,3.35929 0.41744,-0.2574 0.80055,2.00346 0.85135,5.02413 0.0508,3.02067 0.79687,7.60801 1.65794,10.1941 1.33894,4.02133 1.69793,4.363 2.48009,2.36037 0.503,-1.28787 0.95188,-3.99989 0.99749,-6.02671 z"
         id="path1748" />
      <path
         style="fill:#280b0b;fill-opacity:1;stroke-width:1.00362"
         d="m 737.80807,133.56743 c 0,-0.6491 0.53109,-1.50841 1.18019,-1.90959 0.64911,-0.40117 1.18019,-0.19831 1.18019,0.45079 0,0.64911 -0.53108,1.50843 -1.18019,1.90959 -0.6491,0.40117 -1.18019,0.19832 -1.18019,-0.45079 z"
         id="path1747" />
      <path
         style="fill:#280b0b;fill-opacity:1;stroke-width:1.00362"
         d="m 734.99376,141.09936 c 0.41727,-1.94732 1.28089,-4.07165 1.91914,-4.72077 0.7624,-0.77535 0.86358,-0.1681 0.29497,1.77029 -1.39778,4.76496 -3.08459,7.01278 -2.21411,2.95048 z"
         id="path1746" />
      <path
         style="fill:#280b0b;fill-opacity:1;stroke-width:1.00362"
         d="m 846.82702,168.83379 c 0.28471,0 0.20972,1.19494 -0.16663,2.65543 -0.60002,2.32853 -0.44977,2.46319 1.22053,1.09391 1.04764,-0.85884 1.63414,-2.4521 1.30333,-3.54057 -0.3308,-1.08848 0.11147,-0.79589 0.98281,0.65019 l 1.58426,2.62924 1.70756,-2.62924 c 2.61556,-4.02733 4.52864,-9.98246 6.49667,-20.22314 1.99474,-10.3797 1.49694,-13.59874 -0.73327,-4.74175 -1.03079,4.09363 -1.64232,5.08559 -2.1837,3.54221 -0.53375,-1.52161 -1.38727,-0.0455 -2.94122,5.08691 -2.89979,9.57735 -3.7016,8.32705 -1.33439,-2.08077 2.05627,-9.04069 2.27531,-11.474 0.70362,-7.81648 l -1.01429,2.36038 -0.16572,-2.36038 c -0.15176,-2.16179 -3.35522,5.57262 -5.86575,14.16227 -1.60808,5.50197 -2.66185,17.11933 -1.25785,13.86722 0.63052,-1.46049 1.37935,-2.65543 1.66404,-2.65543 z"
         id="path1745" />
      <path
         style="fill:#280b0b;fill-opacity:1;stroke-width:1.00362"
         d="m 851.2721,168.83379 c 0,-0.97365 0.45644,-2.83245 1.01429,-4.13065 0.63933,-1.4878 1.0143,-1.70595 1.0143,-0.5901 0,0.97366 -0.45644,2.83245 -1.0143,4.13067 -0.63932,1.48778 -1.01429,1.70593 -1.01429,0.59008 z"
         id="path1744" />
      <path
         style="fill:#280b0b;fill-opacity:1;stroke-width:1.00362"
         d="m 854.27279,173.33326 c -0.37675,-0.94147 -0.6564,-0.66182 -0.71304,0.71303 -0.0513,1.24412 0.2277,1.94117 0.61987,1.54901 0.39216,-0.39218 0.4341,-1.41009 0.0931,-2.26204 z"
         id="path1743" />
      <path
         style="fill:#280b0b;fill-opacity:1;stroke-width:1.00362"
         d="m 735.4477,180.17185 c 0,-0.2551 -0.82422,-0.7801 -1.83159,-1.16666 -1.05028,-0.40304 -1.52399,-0.20517 -1.11053,0.46382 0.69308,1.12142 2.94212,1.6587 2.94212,0.70284 z"
         id="path1742" />
      <path
         style="fill:#280b0b;fill-opacity:1;stroke-width:1.00362"
         d="m 850.14034,182.48875 c 0.25992,-2.22633 0.0525,-3.78824 -0.46097,-3.47091 -0.92408,0.57111 -1.36075,7.51879 -0.47256,7.51879 0.25353,0 0.67362,-1.82154 0.93353,-4.04788 z"
         id="path1741" />
      <path
         style="fill:#280b0b;fill-opacity:1;stroke-width:1.00362"
         d="m 738.32869,185.98407 c -1.41295,-1.0687 -1.69884,-1.74713 -0.74601,-1.77029 0.84968,-0.0207 1.21993,-0.56333 0.82274,-1.20597 -0.45501,-0.73622 -1.32742,-0.62709 -2.35847,0.29505 -1.38753,1.24094 -1.34374,1.68781 0.28796,2.93873 1.05836,0.81137 2.45538,1.47523 3.10449,1.47523 0.6491,0 0.14928,-0.77974 -1.11071,-1.73275 z"
         id="path1740" />
      <path
         style="fill:#280b0b;fill-opacity:1;stroke-width:1.00362"
         d="m 803.19968,180.94126 c 0.38443,-0.38444 0.73979,0.0534 0.78967,0.97296 0.0499,0.91957 0.8346,-0.4524 1.7438,-3.04882 l 1.65309,-4.72075 -0.57365,6.49104 c -0.53015,5.99879 -0.43681,6.3148 1.23082,4.16713 1.95378,-2.51623 3.46362,-7.61024 4.7331,-15.96903 0.67498,-4.44434 0.54607,-5.06166 -0.79012,-3.78359 -0.87819,0.83999 -2.23393,3.22987 -3.01277,5.31085 -1.3993,3.7388 -1.40969,3.72071 -0.87658,-1.52726 0.29672,-2.92096 0.2058,-4.5869 -0.20203,-3.70207 -0.61539,1.33512 -0.90706,1.34094 -1.71467,0.0342 -1.14167,-1.84726 -2.18378,-1.08485 -2.7851,2.03756 -0.23616,1.22629 -0.96761,4.35189 -1.62544,6.94577 -0.65783,2.59389 -1.51394,7.37159 -1.90246,10.61711 l -0.7064,5.90094 1.66988,-4.51352 c 0.91844,-2.48244 1.98442,-4.82807 2.36886,-5.21251 z"
         id="path1739" />
      <path
         style="fill:#280b0b;fill-opacity:1;stroke-width:1.00362"
         d="m 780.78572,188.13998 c 0.64719,-1.68653 0.47263,-1.72975 -1.34897,-0.33395 -1.15079,0.88179 -2.31364,1.75353 -2.58409,1.93721 -0.27047,0.18368 0.33657,0.33396 1.34896,0.33396 1.01239,0 2.17524,-0.87174 2.5841,-1.93722 z"
         id="path1738" />
      <path
         style="fill:#280b0b;fill-opacity:1;stroke-width:1.00362"
         d="m 743.70901,190.66729 c -0.80805,-0.97365 -2.06803,-1.72836 -2.79993,-1.67711 -0.7319,0.0513 -0.60677,0.38107 0.27806,0.73296 1.35824,0.54015 1.35824,0.79851 0,1.65904 -1.16661,0.7391 -0.83921,1.02422 1.19115,1.03733 2.35567,0.0153 2.56681,-0.26282 1.33072,-1.75222 z"
         id="path1737" />
      <path
         style="fill:#280b0b;fill-opacity:1;stroke-width:1.00362"
         d="m 746.92995,194.08492 c -0.39217,-0.39216 -1.41008,-0.43409 -2.26203,-0.0931 -0.94148,0.37675 -0.66183,0.6564 0.71303,0.71303 1.24412,0.0513 1.94116,-0.22769 1.549,-0.61986 z"
         id="path1736" />
      <path
         style="fill:#280b0b;fill-opacity:1;stroke-width:1.00362"
         d="m 773.7483,194.60851 c 1.6533,-0.75329 3.006,-1.81546 3.006,-2.36037 0,-1.56797 -1.53437,-1.1228 -4.72075,1.36963 -3.35081,2.62104 -2.69499,2.99996 1.71475,0.99074 z"
         id="path1735" />
      <path
         style="fill:#280b0b;fill-opacity:1;stroke-width:1.00362"
         d="m 752.83089,195.26511 c -0.39216,-0.39216 -1.41007,-0.4341 -2.26203,-0.0931 -0.94147,0.37674 -0.66181,0.6564 0.71303,0.71303 1.24412,0.0513 1.94117,-0.2277 1.549,-0.61986 z"
         id="path1734" />
      <path
         style="fill:#280b0b;fill-opacity:1;stroke-width:1.00362"
         d="m 851.73561,196.27319 c -0.89166,-1.78503 -2.15873,-4.57323 -2.81571,-6.19599 -1.19212,-2.94456 -1.19467,-2.945 -1.27439,-0.21747 -0.0874,2.99214 1.88806,7.39071 3.93243,8.75576 1.91697,1.28001 1.92292,1.19161 0.15767,-2.3423 z"
         id="path1733" />
      <path
         style="fill:#280b0b;fill-opacity:1;stroke-width:1.00362"
         d="m 373.89684,209.33397 c -0.44354,-0.44355 0.71541,-1.44634 2.57544,-2.22843 2.61556,-1.09975 4.10659,-3.23222 6.58,-9.41067 3.91543,-9.78057 19.97395,-73.34531 19.10288,-75.61529 -1.05615,-2.75228 -3.92573,-1.83992 -8.782,2.79217 -5.26692,5.02379 -7.24498,10.61014 -7.2548,20.48862 -0.005,5.15796 0.65842,7.60132 3.00222,11.05512 1.65484,2.43854 2.80184,4.64068 2.54888,4.89364 -1.21892,1.21892 -8.05785,-1.32342 -10.47165,-3.8928 -2.21226,-2.35484 -2.80034,-4.50627 -3.15578,-11.54509 -0.37723,-7.47009 0.008,-9.64279 2.82416,-15.91745 6.2848,-14.00439 19.52223,-22.09638 31.0631,-18.98874 8.82024,2.37505 10.31929,5.66623 13.72536,30.13431 0.90358,6.49103 1.97383,14.85563 2.37833,18.58797 0.40449,3.73235 1.09554,6.76398 1.53566,6.73697 0.44013,-0.027 4.73553,-7.06389 9.54534,-15.6375 14.50059,-25.84762 21.78618,-37.24188 24.6459,-38.54486 1.4937,-0.68057 5.64757,-1.23741 9.23084,-1.23741 5.80707,0 6.43957,0.23779 5.82054,2.18818 -0.38197,1.20349 -1.45411,6.38157 -2.38254,11.50684 -0.92842,5.12527 -3.86837,19.14374 -6.53323,31.15216 -7.45852,33.60967 -7.66874,34.92629 -6.11939,38.32673 1.96855,4.32049 7.2558,4.03199 11.93925,-0.65146 1.99724,-1.99724 3.63136,-3.29859 3.63136,-2.89187 0,2.04547 -3.86852,7.76953 -7.07349,10.46634 -9.7502,8.20426 -22.22362,3.38115 -24.2646,-9.3824 -0.70557,-4.41244 1.99941,-24.67797 4.19675,-31.44163 2.73616,-8.42218 -2.59874,-0.75649 -14.16821,20.35827 -3.02316,5.51738 -6.51636,11.8904 -7.76267,14.16226 -1.2463,2.27187 -2.36299,4.31616 -2.48153,4.54289 -0.11853,0.22672 -2.36736,0.0487 -4.99741,-0.39568 -5.77941,-0.97643 -6.05987,-1.7686 -9.09904,-25.70064 -1.13448,-8.93342 -2.42209,-15.83753 -2.86136,-15.34245 -0.43927,0.49506 -1.42283,3.55554 -2.18568,6.80107 -2.10965,8.97543 -8.45857,29.22488 -8.99489,28.68855 -0.26059,-0.26058 0.28372,-3.34536 1.20955,-6.85506 0.92585,-3.5097 1.47787,-6.58676 1.22673,-6.8379 -0.25115,-0.25115 0.2261,-2.40019 1.06055,-4.77565 1.64918,-4.69476 3.61661,-20.25155 2.56116,-20.25155 -0.35765,0 -1.14865,1.72602 -1.75778,3.83561 -0.99865,3.45866 -1.1253,3.54565 -1.28874,0.88514 l -0.18124,-2.95047 -1.24948,2.95047 c -0.68721,1.62276 -1.39468,4.80928 -1.57216,7.08114 -0.17748,2.27186 -1.42489,7.84826 -2.77201,12.39198 -2.95012,9.95043 -3.10543,12.31994 -0.38679,5.90095 1.95581,-4.61786 6.17509,-7.77369 4.40371,-3.29378 -0.45964,1.16247 -1.85729,6.06758 -3.10587,10.90024 -1.24858,4.83266 -3.39472,9.98371 -4.7692,11.44677 -3.93662,4.19034 -16.76385,7.88671 -19.13617,5.51439 z"
         id="path1732" />
      <path
         style="fill:#280b0b;fill-opacity:1;stroke-width:1.00362"
         d="m 405.58489,115.72529 c 0.40118,-0.6491 -0.12991,-1.18019 -1.18019,-1.18019 -1.05026,0 -1.58135,0.53109 -1.18018,1.18019 0.40116,0.64911 0.93225,1.18019 1.18018,1.18019 0.24794,0 0.77902,-0.53108 1.18019,-1.18019 z"
         id="path1731" />
      <path
         style="fill:#280b0b;fill-opacity:1;stroke-width:1.00362"
         d="m 469.34317,121.33119 1.85896,-3.83562 -2.41875,2.78618 c -1.33032,1.53239 -2.41875,3.25841 -2.41875,3.83561 0,2.0632 1.14928,0.98813 2.97854,-2.78617 z"
         id="path1730" />
      <path
         style="fill:#280b0b;fill-opacity:1;stroke-width:1.00362"
         d="m 464.08529,130.7727 c 1.46817,-2.56493 0.68104,-2.65881 -1.76703,-0.21074 -1.02002,1.02002 -1.84645,2.74604 -1.83651,3.83561 0.0193,2.11289 0.72642,1.40156 3.60354,-3.62487 z"
         id="path1729" />
      <path
         style="fill:#280b0b;fill-opacity:1;stroke-width:1.00362"
         d="m 423.5155,140.82676 c -0.29923,-1.14828 -0.56374,-0.49453 -0.58779,1.45278 -0.0241,1.94732 0.22077,2.88682 0.54405,2.08779 0.32329,-0.79902 0.34297,-2.39227 0.0438,-3.54057 z"
         id="path1728" />
      <path
         style="fill:#280b0b;fill-opacity:1;stroke-width:1.00362"
         d="m 384.63045,155.241 c -1.53878,-2.93686 -1.15059,-13.7731 0.80254,-22.40296 l 0.80131,-3.54057 -1.95432,3.40791 c -2.71172,4.72863 -3.23457,20.59982 -0.77225,23.44139 2.51957,2.90762 2.94214,2.56671 1.12272,-0.90577 z"
         id="path1727" />
      <path
         style="fill:#280b0b;fill-opacity:1;stroke-width:1.00362"
         d="m 469.269,145.23002 c 0.7401,-6.81308 0.64611,-7.40719 -0.84014,-5.31086 -1.84445,2.60156 -5.19663,17.5919 -6.20206,27.73445 -0.63073,6.36275 -0.57573,6.28112 2.78272,-4.13067 1.88439,-5.84193 3.80116,-14.07375 4.25948,-18.29292 z"
         id="path1726" />
      <path
         style="fill:#280b0b;fill-opacity:1;stroke-width:1.00362"
         d="m 434.56073,167.94865 c 2.07849,-3.73234 4.9252,-9.06884 6.32602,-11.85886 1.48025,-2.94821 3.0239,-4.6782 3.68576,-4.13066 0.62634,0.51816 0.79798,0.51277 0.38141,-0.0119 -0.41657,-0.52475 1.35032,-4.77343 3.92641,-9.44151 5.53012,-10.02101 8.39294,-16.51436 6.86441,-15.56968 -2.259,1.39614 -23.68587,39.57159 -25.33777,45.14336 -1.33207,4.49304 0.19955,2.96993 4.15376,-4.13067 z"
         id="path1725" />
      <path
         style="fill:#280b0b;fill-opacity:1;stroke-width:1.00362"
         d="m 459.26143,164.70314 c 0.1647,3.49156 0.81326,1.49413 2.4908,-7.67123 1.24747,-6.8156 2.13173,-13.98525 1.96502,-15.93255 -0.27845,-3.25257 -0.60443,-2.91658 -4.00766,4.13066 -3.38137,7.00198 -4.30532,11.22679 -5.80731,26.55424 -0.38907,3.97051 -0.0177,3.40783 2.33693,-3.54055 2.77256,-8.18176 2.80167,-8.21587 3.02222,-3.54057 z"
         id="path1724" />
      <path
         style="fill:#280b0b;fill-opacity:1;stroke-width:1.00362"
         d="m 444.41607,164.93965 c 4.19427,-6.98354 8.25459,-14.60212 9.02292,-16.93019 0.76833,-2.32808 2.39767,-5.23356 3.62074,-6.45663 1.22307,-1.22307 2.21563,-2.88762 2.20569,-3.69899 -0.0122,-1.00095 -0.42238,-0.90609 -1.27565,0.29504 -0.95573,1.34538 -1.07817,0.92048 -0.5101,-1.77029 l 0.74748,-3.54055 -2.76416,4.13065 c -1.52029,2.27186 -4.6019,7.94777 -6.84801,12.61314 -2.24612,4.66537 -4.63372,8.51573 -5.30579,8.55637 -0.67205,0.0406 -2.97505,3.62906 -5.11777,7.97426 -2.2583,4.57959 -3.10888,7.24724 -2.02359,6.34654 2.3763,-1.97216 2.36748,-0.94923 -0.0328,3.80959 -3.65697,7.25016 0.71375,1.2708 8.2811,-11.32894 z"
         id="path1723" />
      <path
         style="fill:#280b0b;fill-opacity:1;stroke-width:1.00362"
         d="m 457.72931,183.95497 c -0.37674,-0.94148 -0.6564,-0.66183 -0.71302,0.71303 -0.0513,1.24412 0.22769,1.94116 0.61986,1.549 0.39216,-0.39217 0.43409,-1.41009 0.0931,-2.26203 z"
         id="path1722" />
      <path
         style="fill:#280b0b;fill-opacity:1;stroke-width:1.00362"
         d="m 419.15234,170.60408 0.46186,9.44151 0.65658,-11.80188 0.65657,-11.8019 0.98584,9.14647 c 0.5422,5.03055 1.35395,9.14646 1.80387,9.14646 0.44993,0 0.80293,-6.0565 0.78445,-13.45889 -0.0185,-7.40239 -0.37561,-12.90575 -0.79364,-12.22969 -0.41803,0.67606 -1.8478,-3.22529 -3.17729,-8.66966 -1.88628,-7.72451 -2.28413,-8.60266 -1.81123,-3.99791 0.46899,4.56682 0.30267,5.50071 -0.73564,4.13067 -1.11558,-1.47199 -1.23048,-1.36915 -0.68192,0.61033 0.98875,3.568 1.2149,18.12627 0.29584,19.04533 -0.44051,0.44052 -0.80094,-2.50706 -0.80094,-6.55017 0,-11.93162 -6.28548,-29.80493 -12.37846,-35.19924 l -3.96437,-3.50979 -4.22057,2.41204 c -2.32131,1.32663 -4.22057,2.83874 -4.22057,3.36026 0,1.33874 1.65954,1.17699 3.14283,-0.3063 2.15506,-2.15507 8.56786,-1.6755 10.41619,0.77893 2.34723,3.11693 5.324,12.03977 5.324,15.95863 0,1.79338 0.53975,3.59426 1.19945,4.00197 0.65969,0.40771 0.94444,1.15389 0.63277,1.65817 -0.31166,0.50428 0.47631,7.71113 1.75104,16.01522 1.27472,8.3041 2.42267,18.07819 2.55098,21.72022 0.13809,3.9194 0.52453,1.32371 0.9469,-6.36021 l 0.71361,-12.98208 z"
         id="path1721" />
      <path
         style="fill:#280b0b;fill-opacity:1;stroke-width:1.00362"
         d="m 394.50885,177.74419 c 1.45248,-4.83584 3.07031,-8.52703 3.59517,-8.20265 0.52486,0.32438 0.62442,-1.0596 0.22124,-3.07549 -0.41103,-2.05517 0.18072,-7.54548 1.34708,-12.49823 2.47372,-10.5043 1.79212,-12.84724 -0.91332,-3.13946 -2.42821,8.71299 -7.92648,32.5253 -7.92648,34.32853 0,3.24441 1.20538,0.81394 3.67631,-7.4127 z"
         id="path1720" />
      <path
         style="fill:#280b0b;fill-opacity:1;stroke-width:1.00362"
         d="m 458.88492,189.78214 c -0.3274,-0.81137 -0.59528,-0.14752 -0.59528,1.47525 0,1.62276 0.26788,2.28661 0.59528,1.47524 0.3274,-0.81139 0.3274,-2.1391 0,-2.95049 z"
         id="path1719" />
      <path
         style="fill:#280b0b;fill-opacity:1;stroke-width:1.00362"
         d="m 425.86422,192.21629 c -0.37675,-0.94147 -0.65641,-0.66182 -0.71303,0.71304 -0.0513,1.2441 0.22769,1.94116 0.61985,1.54899 0.39217,-0.39217 0.4341,-1.41008 0.0931,-2.26203 z"
         id="path1718" />
      <path
         style="fill:#280b0b;fill-opacity:1;stroke-width:1.00362"
         d="m 463.41415,198.33852 c -0.40116,-0.64911 -1.26048,-1.18019 -1.90958,-1.18019 -0.6491,0 -0.85197,0.53108 -0.4508,1.18019 0.40117,0.6491 1.26049,1.18019 1.90959,1.18019 0.6491,0 0.85196,-0.53109 0.45079,-1.18019 z"
         id="path1717" />
      <path
         style="fill:#280b0b;fill-opacity:1;stroke-width:1.00362"
         d="m 855.87402,222.58909 c -2.03626,-2.45354 -1.03277,-5.89737 1.83855,-6.30964 3.776,-0.54216 5.51944,2.31483 3.32471,5.44824 -2.1143,3.01858 -3.21988,3.20303 -5.16326,0.8614 z"
         id="path1716" />
      <path
         style="fill:#280b0b;fill-opacity:1;stroke-width:1.00362"
         d="m 200.09117,231.49052 c -4.40907,-2.68856 -6.59996,-8.10281 -5.22242,-12.90599 2.35175,-8.2001 6.77339,-11.78022 19.82059,-16.04841 4.68016,-1.53104 6.19599,-2.59334 6.19599,-4.3422 0,-2.19497 -0.266,-2.15939 -5.11949,0.68494 -3.94434,2.31154 -6.72113,2.99428 -12.09694,2.97431 -21.57323,-0.0802 -34.04727,-19.78415 -29.39509,-46.43249 2.78666,-15.96236 10.39126,-27.79741 24.53016,-38.17632 5.94763,-4.36597 18.33781,-8.6002 25.16582,-8.6002 6.60711,0 15.67903,3.68292 19.33853,7.85085 10.92604,12.44407 3.47611,30.12526 -12.56974,29.83224 -2.49832,-0.0457 -5.50161,-0.46134 -6.67399,-0.92383 -1.73242,-0.6834 -1.21091,-1.24708 2.7848,-3.00998 8.57636,-3.78388 11.79869,-15.7511 5.44038,-20.20464 -8.6781,-6.07837 -28.87201,3.96446 -35.96255,17.8849 -6.36146,12.48907 -8.04319,29.73514 -3.80913,39.06237 4.38158,9.65215 16.42068,12.76161 27.24593,7.03709 5.08524,-2.68915 5.18699,-2.86587 7.98465,-13.86722 1.55858,-6.12886 3.04367,-11.36653 3.30023,-11.63928 0.66769,-0.70984 15.05099,-3.59756 15.53051,-3.11804 0.21989,0.2199 -1.75372,8.76659 -4.38581,18.99266 -2.63209,10.22606 -4.78563,20.30438 -4.78563,22.39626 0,2.09188 -1.08958,5.1886 -2.42129,6.8816 -1.33171,1.693 -3.21933,5.42029 -4.19472,8.28289 -3.53482,10.37412 -14.52889,19.55746 -23.4788,19.61183 -1.94731,0.0118 -5.19721,-0.98868 -7.22199,-2.22334 z"
         id="path1715" />
      <path
         style="fill:#280b0b;fill-opacity:1;stroke-width:1.00362"
         d="m 198.37106,123.12422 c 1.46471,-3.21465 1.46222,-3.21716 -0.99074,-0.99726 -2.53669,2.29567 -3.20629,4.22004 -1.4684,4.22004 0.54492,0 1.65153,-1.45026 2.45914,-3.22278 z"
         id="path1714" />
      <path
         style="fill:#280b0b;fill-opacity:1;stroke-width:1.00362"
         d="m 214.04607,120.27039 c 2.78794,-1.45105 5.7815,-2.76192 6.65236,-2.91304 3.27444,-0.56821 2.80059,-1.63206 -0.72693,-1.63206 -2.0172,0 -3.98151,0.50789 -4.36517,1.12865 -0.38364,0.62076 -1.47715,0.82948 -2.43002,0.46382 -1.09809,-0.42137 -1.73249,0.0588 -1.73249,1.31127 0,1.41007 -0.64764,1.77053 -2.26105,1.25845 -1.24359,-0.3947 -2.59889,-0.17103 -3.01178,0.49704 -0.46267,0.74864 0.0652,0.92738 1.37592,0.46585 1.16964,-0.41185 -0.13048,1.22886 -2.88917,3.64605 -2.75869,2.41718 -5.01581,4.94638 -5.01581,5.62043 0,0.67406 2.10041,-0.67203 4.66758,-2.99132 2.56716,-2.31928 6.94861,-5.4041 9.73656,-6.85514 z"
         id="path1713" />
      <path
         style="fill:#280b0b;fill-opacity:1;stroke-width:1.00362"
         d="m 240.95747,135.78851 c 0.60345,0 0.75826,0.9294 0.344,2.06533 -0.67615,1.85414 -0.49135,1.83544 1.80733,-0.18291 1.64455,-1.444 2.53083,-3.55491 2.47755,-5.90096 -0.0707,-3.1097 -0.23374,-3.3018 -1.09724,-1.29232 -0.84999,1.97802 -1.02773,1.73904 -1.09724,-1.47523 -0.0457,-2.10959 -0.61403,-3.83561 -1.26314,-3.83561 -0.6491,0 -1.18019,0.56901 -1.18019,1.26448 0,0.69547 -0.79662,2.06112 -1.77028,3.03477 -0.97366,0.97366 -1.77029,2.76318 -1.77029,3.97672 0,1.21353 -0.53108,2.53465 -1.18018,2.93581 -0.64911,0.40118 -1.18019,1.59484 -1.18019,2.65258 0,1.56171 0.45226,1.43772 2.40635,-0.65975 1.32349,-1.4206 2.90008,-2.58291 3.50352,-2.58291 z"
         id="path1712" />
      <path
         style="fill:#280b0b;fill-opacity:1;stroke-width:1.00362"
         d="m 186.20324,160.35471 c -0.37606,-1.88025 -0.23973,-4.32647 0.30294,-5.43605 1.90405,-3.89313 6.18857,-18.20941 5.61985,-18.77813 -0.31612,-0.31612 -1.65186,1.46693 -2.96831,3.96231 -1.31645,2.49539 -2.41566,4.00599 -2.44268,3.35689 -0.027,-0.6491 1.83679,-4.3078 4.14178,-8.13042 2.30501,-3.82263 3.88304,-7.75255 3.50674,-8.73316 -1.75162,-4.56464 -12.3535,12.03909 -12.37757,19.38465 -0.006,1.85894 0.15397,5.23868 0.35569,7.51054 0.20173,2.27186 0.45921,5.84002 0.5722,7.92924 0.1596,2.95146 0.62551,3.63736 2.08924,3.07567 1.37004,-0.52574 1.69736,-1.65529 1.20012,-4.14154 z"
         id="path1711" />
      <path
         style="fill:#280b0b;fill-opacity:1;stroke-width:1.00362"
         d="m 190.20042,129.88756 c 0,-0.64911 0.56242,-1.18019 1.24984,-1.18019 0.68741,0 0.92161,0.53108 0.52044,1.18019 -0.40117,0.64911 -0.9636,1.18019 -1.24984,1.18019 -0.28624,0 -0.52044,-0.53108 -0.52044,-1.18019 z"
         id="path1710" />
      <path
         style="fill:#280b0b;fill-opacity:1;stroke-width:1.00362"
         d="m 184.39265,152.8029 c 0.0566,-1.37486 0.33628,-1.65451 0.71303,-0.71303 0.34092,0.85194 0.29899,1.86986 -0.0931,2.26202 -0.39216,0.39217 -0.6711,-0.30488 -0.61985,-1.54899 z"
         id="path1709" />
      <path
         style="fill:#280b0b;fill-opacity:1;stroke-width:1.00362"
         d="m 178.31069,155.26162 c 0.10529,-3.24552 0.92504,-7.95901 1.82165,-10.47442 0.89662,-2.51541 1.07101,-4.01427 0.38753,-3.33079 -2.79381,2.79381 -6.20963,21.10781 -4.66369,25.00451 0.93659,2.36076 2.2019,-3.41254 2.45451,-11.1993 z"
         id="path1708" />
      <path
         style="fill:#280b0b;fill-opacity:1;stroke-width:1.00362"
         d="m 183.26573,169.69927 c -1.16557,-1.15691 -1.30113,-1.02134 -0.66066,0.66066 0.4432,1.16393 1.10311,1.81893 1.46648,1.45557 0.36336,-0.36336 7.4e-4,-1.31567 -0.80582,-2.11623 z"
         id="path1707" />
      <path
         style="fill:#280b0b;fill-opacity:1;stroke-width:1.00362"
         d="m 193.74098,187.85446 c 0,-1.12902 -4.87647,-2.73569 -5.7257,-1.88647 -0.39521,0.39521 3.21423,2.29225 5.43066,2.85421 0.16228,0.0411 0.29504,-0.39434 0.29504,-0.96774 z"
         id="path1706" />
      <path
         style="fill:#280b0b;fill-opacity:1;stroke-width:1.00362"
         d="m 235.97731,186.37529 c -0.29463,-0.8839 -0.82961,-0.34893 -1.24694,1.24693 -0.51335,1.96305 -0.35975,2.42384 0.51603,1.54806 0.68581,-0.68581 1.01472,-1.94356 0.73091,-2.79499 z"
         id="path1705" />
      <path
         style="fill:#280b0b;fill-opacity:1;stroke-width:1.00362"
         d="m 196.00301,190.83332 c -0.27045,-0.23325 -2.085,-0.78046 -4.03231,-1.21604 -2.5857,-0.57839 -3.06313,-0.46889 -1.77028,0.40599 1.59369,1.07847 6.98689,1.83136 5.80259,0.81005 z"
         id="path1704" />
      <path
         style="fill:#280b0b;fill-opacity:1;stroke-width:1.00362"
         d="m 219.70515,191.06069 c 0,-0.75729 0.34945,-1.02744 0.77655,-0.60034 0.88751,0.88752 3.9442,-1.33587 3.9442,-2.86895 0,-0.55912 -1.8588,-0.13019 -4.13067,0.95319 -4.29679,2.049 -5.41483,3.89298 -2.36037,3.89298 0.97365,0 1.77029,-0.61959 1.77029,-1.37688 z"
         id="path1703" />
      <path
         style="fill:#280b0b;fill-opacity:1;stroke-width:1.00362"
         d="m 200.50249,191.72454 c -0.39217,-0.39216 -1.41009,-0.4341 -2.26204,-0.0931 -0.94147,0.37675 -0.66181,0.6564 0.71303,0.71304 1.24412,0.0513 1.94117,-0.2277 1.54901,-0.61987 z"
         id="path1702" />
      <path
         style="fill:#280b0b;fill-opacity:1;stroke-width:1.00362"
         d="m 213.80419,193.61777 c 1.37457,-0.88832 1.02924,-1.14809 -1.54488,-1.16212 -1.91319,-0.0104 -3.00671,0.48102 -2.58577,1.16212 0.90564,1.46535 1.86318,1.46535 4.13065,0 z"
         id="path1701" />
      <path
         style="fill:#280b0b;fill-opacity:1;stroke-width:1.00362"
         d="m 206.72306,193.73006 c 0,-0.96184 -9.33436,-0.394 -10.52335,0.64017 -0.27045,0.23525 1.98666,0.42772 5.0158,0.42772 3.02916,0 5.50755,-0.48055 5.50755,-1.06789 z"
         id="path1700" />
      <path
         style="fill:#280b0b;fill-opacity:1;stroke-width:1.00362"
         d="m 229.09638,190.3296 c 0.66951,-2.41068 1.22026,-5.87489 1.22388,-7.69823 0.004,-1.90829 0.50743,-3.00563 1.18677,-2.58578 0.73431,0.45383 1.18019,-1.8236 1.18019,-6.02799 0,-3.71656 -0.21674,-6.5361 -0.48164,-6.26565 -0.69451,0.70908 -4.34989,14.11793 -4.79916,17.60449 -0.2091,1.62277 -0.78262,4.75908 -1.27449,6.9696 -1.23741,5.56114 1.3493,3.81908 2.96445,-1.99644 z"
         id="path1699" />
      <path
         style="fill:#280b0b;fill-opacity:1;stroke-width:1.00362"
         d="m 214.09925,205.81823 c -0.81139,-0.3274 -2.1391,-0.3274 -2.95047,0 -0.81139,0.3274 -0.14754,0.59527 1.47523,0.59527 1.62276,0 2.28661,-0.26787 1.47524,-0.59527 z"
         id="path1698" />
      <path
         style="fill:#280b0b;fill-opacity:1;stroke-width:1.00362"
         d="m 200.61231,215.91687 2.39723,-4.84523 -2.864,2.69058 c -1.57519,1.47982 -2.86399,3.66018 -2.86399,4.84523 0,3.21414 0.68185,2.66333 3.33076,-2.69058 z"
         id="path1697" />
      <path
         style="fill:#280b0b;fill-opacity:1;stroke-width:1.00362"
         d="m 211.10005,222.82744 c 2.26498,-2.47708 6.24471,-9.39694 6.24471,-10.85814 0,-1.43716 -5.08661,-0.51003 -9.46964,1.72603 -5.07866,2.59094 -7.15743,7.04734 -4.6799,10.03258 2.08412,2.51121 5.09934,2.16773 7.90483,-0.90047 z"
         id="path1696" />
      <path
         style="fill:#280b0b;fill-opacity:1;stroke-width:1.00362"
         d="m 199.26795,224.0814 c -0.37675,-0.94148 -0.65641,-0.66183 -0.71303,0.71303 -0.0513,1.24411 0.22769,1.94116 0.61985,1.549 0.39217,-0.39218 0.4341,-1.41009 0.0931,-2.26203 z"
         id="path1695" />
      <path
         style="fill:#280b0b;fill-opacity:1;stroke-width:1.00362"
         d="m 212.14604,227.56853 c 1.84455,-2.16191 1.87624,-2.34693 0.17653,-1.03036 -1.35794,1.05182 -3.79767,1.38696 -7.08114,0.97273 -2.75518,-0.3476 -4.08,-0.37607 -2.94408,-0.0633 1.13594,0.31279 2.06533,1.06084 2.06533,1.66235 0,2.14942 5.57662,1.04501 7.78336,-1.54144 z"
         id="path1694" />
      <path
         style="fill:#280b0b;fill-opacity:1;stroke-width:1.00362"
         d="m 780.30805,238.94291 c 0.007,-0.58743 1.59457,-6.11336 3.52739,-12.27985 1.93282,-6.16649 3.52016,-12.08092 3.52739,-13.14318 0.008,-1.23944 1.28161,-2.11755 3.55374,-2.45102 1.94731,-0.2858 3.54057,0.0139 3.54057,0.66623 0,3.1037 -8.73833,28.22848 -9.16297,26.34574 -0.46146,-2.04596 -0.59952,-2.05161 -2.74261,-0.11214 -1.24118,1.12325 -2.25076,1.56165 -2.24351,0.97422 z"
         id="path1693" />
      <path
         style="fill:#280b0b;fill-opacity:1;stroke-width:1.00362"
         d="m 861.7437,262.65882 c 0.009,-0.6491 1.59483,-5.69441 3.52477,-11.2118 4.07421,-11.64744 4.4699,-16.15116 1.47524,-16.79051 -1.57101,-0.33542 -1.12181,-0.94151 1.8768,-2.53232 5.41398,-2.87218 7.65066,-1.79191 7.04428,3.40225 -0.59238,5.0741 0.73772,5.29297 3.20232,0.52696 2.361,-4.56568 6.83807,-6.80829 9.3801,-4.69859 2.15656,1.78978 2.36375,6.07955 0.38901,8.05429 -2.28119,2.28118 -5.66491,1.71723 -5.66491,-0.94416 0,-7.74529 -8.7885,4.92496 -13.50718,19.47312 -1.61168,4.969 -2.37372,5.90095 -4.82509,5.90095 -1.60112,0 -2.90403,-0.53108 -2.89534,-1.18019 z"
         id="path1687" />
      <path
         style="fill:#280b0b;fill-opacity:1;stroke-width:1.00362"
         d="m 870.99017,248.01013 c 0.75355,-2.21484 1.10214,-4.29493 0.77466,-4.6224 -0.32747,-0.32748 -0.59542,0.0555 -0.59542,0.85112 0,0.7956 -0.47934,1.15027 -1.06522,0.78819 -1.19615,-0.73927 -3.65553,5.46316 -3.65553,9.21908 0,2.41667 0.0196,2.41815 1.58572,0.11893 0.87213,-1.28036 2.20224,-4.14007 2.95579,-6.35492 z"
         id="path1686" />
      <path
         style="fill:#280b0b;fill-opacity:1;stroke-width:1.00362"
         d="m 845.70323,261.53175 c -0.43911,-1.7496 0.48702,-6.54328 2.33789,-12.10096 3.81544,-11.45672 3.99294,-15.02435 0.70471,-14.16445 -1.29821,0.33949 -2.36038,0.13589 -2.36038,-0.45245 0,-0.58834 0.20068,-1.0697 0.44597,-1.0697 0.24527,0 2.33784,-0.79047 4.65013,-1.75661 3.72559,-1.55665 4.40493,-1.55585 5.96784,0.007 1.5648,1.56478 1.37311,2.91915 -1.69965,12.0096 -1.90484,5.63525 -3.46335,11.47401 -3.46335,12.975 0,2.94725 2.20487,3.59271 4.48473,1.31286 1.0002,-1.00021 1.41622,-1.02537 1.41622,-0.0857 0,2.10736 -5.94418,6.22264 -8.98809,6.22264 -1.95562,0 -2.98241,-0.85096 -3.49602,-2.89735 z"
         id="path1685" />
      <path
         style="fill:#280b0b;fill-opacity:1;stroke-width:1.00362"
         d="m 853.46659,244.95598 c 0,-0.97365 -0.20872,-1.77027 -0.46383,-1.77027 -0.2551,0 -0.76952,0.79662 -1.14315,1.77027 -0.37362,0.97366 -0.1649,1.77029 0.46383,1.77029 0.62873,0 1.14315,-0.79663 1.14315,-1.77029 z"
         id="path1684" />
      <path
         style="fill:#280b0b;fill-opacity:1;stroke-width:1.00362"
         d="m 811.7528,262.27085 c -5.15228,-5.6932 0.30359,-23.27597 8.96514,-28.89222 5.04652,-3.27222 9.01374,-4.01425 10.97519,-2.0528 0.67343,0.67343 2.8917,0.72313 5.54689,0.12429 2.43357,-0.54886 4.42467,-0.79906 4.42467,-0.556 0,0.24306 -0.8348,2.52832 -1.85512,5.07834 -2.62657,6.56445 -6.16648,21.67717 -5.50054,23.4832 0.43906,1.19074 1.16431,1.12134 3.36752,-0.32226 4.10282,-2.68827 3.43914,-0.0352 -0.73465,2.93678 -4.79551,3.41471 -8.73523,2.7632 -9.22757,-1.52595 l -0.37819,-3.29477 -4.08858,3.58982 c -4.64769,4.08072 -8.6466,4.57875 -11.49476,1.43157 z"
         id="path1683" />
      <path
         style="fill:#280b0b;fill-opacity:1;stroke-width:1.00362"
         d="m 834.61338,244.89439 c 2.77157,-5.7253 2.49716,-8.48676 -0.38521,-3.87642 -1.75123,2.80111 -3.64945,9.24887 -2.72285,9.24887 0.27902,0 1.67764,-2.4176 3.10806,-5.37245 z"
         id="path1682" />
      <path
         style="fill:#280b0b;fill-opacity:1;stroke-width:1.00362"
         d="m 815.87212,243.48075 c 1.18166,-2.10959 1.6401,-3.83561 1.01876,-3.83561 -1.49382,0 -4.75598,6.39234 -4.63773,9.08785 0.0731,1.6661 0.24162,1.74234 0.78184,0.35366 0.37877,-0.97366 1.65547,-3.49631 2.83713,-5.6059 z"
         id="path1681" />
      <path
         style="fill:#280b0b;fill-opacity:1;stroke-width:1.00362"
         d="m 822.35976,259.16292 c 2.45268,-1.71792 8.07804,-12.31468 9.97129,-18.78338 1.13356,-3.87303 -0.44067,-7.81554 -3.12071,-7.81554 -2.94827,0 -9.62748,7.90951 -11.6218,13.76251 -2.24702,6.59466 -2.41248,11.2051 -0.47177,13.14581 1.80799,1.80799 2.2579,1.78144 5.24299,-0.3094 z"
         id="path1680" />
      <path
         style="fill:#280b0b;fill-opacity:1;stroke-width:1.00362"
         d="m 773.21,262.65882 c -0.002,-0.6491 1.13335,-5.01663 2.52312,-9.70563 2.58336,-8.71608 4.51594,-10.59362 3.72966,-3.62345 l -0.43854,3.88757 2.57793,-4.72076 c 6.16836,-11.29564 15.10852,-19.23505 19.93472,-17.70328 3.68008,1.16803 3.83724,4.7016 0.65688,14.76923 -1.65873,5.25082 -3.01588,10.58169 -3.01588,11.84639 0,2.57662 2.33206,3.03589 4.48473,0.88323 1.0002,-1.00021 1.41622,-1.02537 1.41622,-0.0857 0,2.12653 -6.13289,6.36069 -8.66172,5.98008 -4.60313,-0.69282 -4.85826,-3.50079 -1.41936,-15.6224 1.7955,-6.32888 2.804,-11.91852 2.24487,-12.44224 -3.57201,-3.34579 -13.1206,8.66397 -16.40703,20.63598 -1.68921,6.15357 -2.31572,7.08113 -4.78285,7.08113 -1.56146,0 -2.84069,-0.53108 -2.84275,-1.18019 z"
         id="path1679" />
    </g>
  </g>
</svg>
